<svg width="20" height="22" viewBox="0 0 20 22" fill="none" xmlns="http://www.w3.org/2000/svg">
<path d="M2.75001 0.5C1.24012 0.5 1.01716e-05 1.74011 1.01716e-05 3.25V6.75C-3.39053e-06 6.7526 -3.39053e-06 6.75521 1.01716e-05 6.75781C0.000247509 6.77705 0.00122479 6.79627 0.00293986 6.81543C0.00354892 6.81999 0.00420001 6.82455 0.00489298 6.8291C0.00667755 6.84479 0.00895732 6.86043 0.0117289 6.87598C0.0133878 6.88807 0.0153415 6.90011 0.0175883 6.91211C0.0199948 6.92193 0.0225995 6.93169 0.0254008 6.94141C0.0289174 6.95519 0.0328252 6.96886 0.0371195 6.98242C0.0437601 7.00259 0.0512538 7.02246 0.0595805 7.04199C0.0599025 7.0433 0.060228 7.0446 0.060557 7.0459L1.30079 9.93945C1.57569 10.5809 2.21106 11 2.90919 11H17.0908C17.789 11 18.4243 10.5809 18.6992 9.93945L19.9395 7.0459C19.9418 7.04039 19.9441 7.03486 19.9463 7.0293C19.9473 7.0267 19.9483 7.02409 19.9492 7.02148C19.9506 7.01694 19.9519 7.01238 19.9531 7.00781C19.9596 6.99046 19.9655 6.97287 19.9707 6.95508C19.9714 6.95345 19.972 6.95183 19.9727 6.9502C19.974 6.94533 19.9753 6.94044 19.9766 6.93555C19.9803 6.92035 19.9836 6.90505 19.9863 6.88965C19.9886 6.87798 19.9905 6.86626 19.9922 6.85449C19.9942 6.84054 19.9958 6.82654 19.9971 6.8125C19.9986 6.79626 19.9996 6.77998 20 6.76367C20 6.76042 20 6.75716 20 6.75391C20 6.7526 20 6.7513 20 6.75V3.25C20 1.74011 18.7599 0.5 17.25 0.5H2.75001ZM2.75001 2H17.25C17.9491 2 18.5 2.55089 18.5 3.25V6H1.50001V3.25C1.50001 2.55089 2.0509 2 2.75001 2ZM14.25 3.5C14.1506 3.49859 14.052 3.51696 13.9597 3.55402C13.8675 3.59108 13.7836 3.6461 13.7128 3.71588C13.642 3.78566 13.5858 3.86882 13.5474 3.96051C13.5091 4.0522 13.4893 4.15061 13.4893 4.25C13.4893 4.34939 13.5091 4.4478 13.5474 4.53949C13.5858 4.63118 13.642 4.71434 13.7128 4.78412C13.7836 4.8539 13.8675 4.90892 13.9597 4.94598C14.052 4.98304 14.1506 5.00141 14.25 5H16.25C16.3494 5.00141 16.4481 4.98304 16.5403 4.94598C16.6325 4.90892 16.7165 4.8539 16.7872 4.78412C16.858 4.71434 16.9142 4.63118 16.9526 4.53949C16.9909 4.4478 17.0107 4.34939 17.0107 4.25C17.0107 4.15061 16.9909 4.0522 16.9526 3.96051C16.9142 3.86882 16.858 3.78566 16.7872 3.71588C16.7165 3.6461 16.6325 3.59108 16.5403 3.55402C16.4481 3.51696 16.3494 3.49859 16.25 3.5H14.25ZM1.88771 7.5H18.1123L17.3203 9.34863C17.2802 9.4422 17.1927 9.5 17.0908 9.5H2.90919C2.80731 9.5 2.7198 9.4422 2.6797 9.34863L1.88771 7.5ZM6.23829 11.9893C6.03955 11.9924 5.85017 12.0742 5.71174 12.2169C5.57331 12.3595 5.49716 12.5513 5.50001 12.75C5.50001 14.0267 5.48975 15.1173 5.21778 16.0518C4.94582 16.9862 4.44465 17.7993 3.30274 18.6475C3.22359 18.7062 3.15678 18.7799 3.10613 18.8645C3.05548 18.949 3.02198 19.0427 3.00755 19.1402C2.99312 19.2377 2.99803 19.3371 3.02201 19.4327C3.04599 19.5283 3.08857 19.6182 3.14732 19.6974C3.20606 19.7765 3.27982 19.8433 3.36439 19.8939C3.44895 19.9446 3.54266 19.978 3.64016 19.9925C3.73766 20.0069 3.83704 20.0019 3.93263 19.9779C4.02822 19.9539 4.11815 19.9113 4.19728 19.8525C5.55537 18.8437 6.3042 17.6837 6.65724 16.4707C7.01027 15.2578 7.00001 14.0267 7.00001 12.75C7.00145 12.6496 6.98272 12.55 6.94494 12.457C6.90716 12.3639 6.85109 12.2795 6.78005 12.2085C6.70902 12.1376 6.62447 12.0816 6.53141 12.044C6.43835 12.0063 6.33867 11.9877 6.23829 11.9893ZM9.98829 11.9893C9.78955 11.9924 9.60017 12.0742 9.46174 12.2169C9.32331 12.3595 9.24716 12.5513 9.25001 12.75V20.25C9.2486 20.3494 9.26697 20.4481 9.30403 20.5403C9.34109 20.6325 9.39611 20.7164 9.46589 20.7872C9.53567 20.858 9.61883 20.9142 9.71052 20.9526C9.80221 20.9909 9.90062 21.0107 10 21.0107C10.0994 21.0107 10.1978 20.9909 10.2895 20.9526C10.3812 20.9142 10.4643 20.858 10.5341 20.7872C10.6039 20.7164 10.6589 20.6325 10.696 20.5403C10.7331 20.4481 10.7514 20.3494 10.75 20.25V12.75C10.7515 12.6496 10.7327 12.55 10.6949 12.457C10.6572 12.3639 10.6011 12.2795 10.5301 12.2085C10.459 12.1376 10.3745 12.0816 10.2814 12.044C10.1883 12.0063 10.0887 11.9877 9.98829 11.9893ZM13.7383 11.9893C13.5395 11.9924 13.3502 12.0742 13.2117 12.2169C13.0733 12.3595 12.9972 12.5513 13 12.75C13 14.0267 12.9898 15.2578 13.3428 16.4707C13.6958 17.6837 14.4446 18.8437 15.8027 19.8525C15.8819 19.9113 15.9718 19.9539 16.0674 19.9779C16.163 20.0019 16.2624 20.0069 16.3599 19.9925C16.4574 19.978 16.5511 19.9446 16.6356 19.8939C16.7202 19.8433 16.794 19.7765 16.8527 19.6974C16.9114 19.6182 16.954 19.5283 16.978 19.4327C17.002 19.3371 17.0069 19.2377 16.9925 19.1402C16.978 19.0427 16.9445 18.949 16.8939 18.8645C16.8432 18.7799 16.7764 18.7062 16.6973 18.6475C15.5554 17.7993 15.0542 16.9862 14.7822 16.0518C14.5103 15.1173 14.5 14.0267 14.5 12.75C14.5015 12.6496 14.4827 12.55 14.4449 12.457C14.4072 12.3639 14.3511 12.2795 14.2801 12.2085C14.209 12.1376 14.1245 12.0816 14.0314 12.044C13.9383 12.0063 13.8387 11.9877 13.7383 11.9893Z" fill="#041C34"/>
</svg>
