<svg width="22" height="19" viewBox="0 0 22 19" fill="none" xmlns="http://www.w3.org/2000/svg">
<path d="M10.9998 0.998047C7.44928 0.998047 4.02585 1.65114 2.14332 3.33594C1.25978 4.12624 0.843069 5.30504 1.04372 6.45215L1.05055 6.48926L1.20485 7.03613C1.50274 8.28615 2.7039 9.11469 3.98122 8.98633L3.99196 8.98535L5.23317 8.82617H5.23415C6.32587 8.71688 7.23963 7.93427 7.48805 6.87207L7.47047 6.93359L7.80934 5.89258L7.81715 5.86133C7.82493 5.82805 7.85421 5.79519 7.88063 5.77441C7.91355 5.76728 8.04774 5.7175 8.21071 5.68848C8.43766 5.64805 8.74055 5.61141 9.06715 5.58301C9.72028 5.52627 10.4738 5.5 10.9998 5.5C11.5257 5.5 12.2793 5.52615 12.9324 5.58301C13.2589 5.61144 13.562 5.64801 13.7888 5.68848C13.9524 5.71767 14.0871 5.7677 14.1189 5.77441C14.1451 5.79557 14.1742 5.83028 14.1814 5.86133L14.1892 5.89258L14.5281 6.93359L14.5105 6.87207C14.759 7.93458 15.6742 8.71724 16.7664 8.82617L16.7449 8.82422L18.0076 8.98633L18.0173 8.9873C19.2951 9.11634 20.496 8.28723 20.7937 7.03711L20.949 6.48926L20.9548 6.45215C21.1555 5.3047 20.738 4.12713 19.8552 3.33691C17.9731 1.65136 14.5503 0.998047 10.9998 0.998047ZM10.9998 2.49805C14.3403 2.49805 17.5583 3.29265 18.8552 4.4541C19.3615 4.90727 19.5822 5.55537 19.4763 6.18262L19.3386 6.6748L19.3347 6.68945C19.2146 7.19371 18.7132 7.549 18.1697 7.49512L16.9256 7.33496L16.9148 7.33398C16.4429 7.28694 16.071 6.95577 15.9714 6.53027L15.9646 6.5L15.6257 5.45898L15.6423 5.52148C15.5399 5.08017 15.2677 4.70721 14.8816 4.47559H14.8806C14.5777 4.293 14.3492 4.26486 14.0525 4.21191C13.7555 4.15891 13.4177 4.11981 13.0623 4.08887C12.3514 4.02697 11.5743 4 10.9998 4C10.4252 4 9.64819 4.02705 8.93727 4.08887C8.58181 4.11978 8.24404 4.15901 7.94704 4.21191C7.65077 4.26469 7.42192 4.29247 7.11989 4.47363C6.73253 4.70493 6.45932 5.07956 6.35622 5.52051L6.37379 5.45898L6.03493 6.49902L6.02711 6.53027C5.9276 6.95577 5.55561 7.28594 5.08375 7.33301L5.07301 7.33398L3.83083 7.49414C3.28714 7.54875 2.78491 7.19246 2.66481 6.68848L2.6609 6.67383L2.52223 6.18164C2.41672 5.55444 2.63706 4.90694 3.14333 4.4541H3.1443C4.44178 3.2929 7.65926 2.49805 10.9998 2.49805ZM9.73805 6.48926C9.53931 6.49236 9.34993 6.57423 9.2115 6.71686C9.07307 6.8595 8.99692 7.05125 8.99977 7.25V8.28613L6.71559 9.42871C4.13277 10.7196 2.49977 13.363 2.49977 16.25C2.49977 17.7599 3.73988 19 5.24977 19H16.7498C18.2597 19 19.4998 17.7599 19.4998 16.25C19.4998 13.3629 17.866 10.72 15.2839 9.42871L12.9998 8.28613V7.25C13.0012 7.15062 12.9828 7.05194 12.9458 6.95972C12.9087 6.86749 12.8537 6.78355 12.7839 6.71277C12.7141 6.642 12.631 6.58579 12.5393 6.54743C12.4476 6.50907 12.3492 6.48932 12.2498 6.48932C12.1504 6.48932 12.052 6.50907 11.9603 6.54743C11.8686 6.58579 11.7854 6.642 11.7157 6.71277C11.6459 6.78355 11.5908 6.86749 11.5538 6.95972C11.5167 7.05194 11.4984 7.15062 11.4998 7.25V8H10.4998V7.25C10.5012 7.14962 10.4825 7.04997 10.4447 6.95695C10.4069 6.86394 10.3508 6.77946 10.2798 6.70852C10.2088 6.63758 10.1242 6.58161 10.0312 6.54395C9.93811 6.50629 9.83843 6.48769 9.73805 6.48926ZM9.9275 9.5H12.072L14.6131 10.7705C16.69 11.8092 17.9998 13.9281 17.9998 16.25C17.9998 16.9491 17.4489 17.5 16.7498 17.5H5.24977C4.55066 17.5 3.99977 16.9491 3.99977 16.25C3.99977 13.928 5.30931 11.8087 7.38649 10.7705L9.9275 9.5ZM8.24977 12C8.05086 12 7.86009 12.079 7.71944 12.2197C7.57879 12.3603 7.49977 12.5511 7.49977 12.75C7.49977 12.9489 7.57879 13.1397 7.71944 13.2803C7.86009 13.421 8.05086 13.5 8.24977 13.5C8.44868 13.5 8.63945 13.421 8.7801 13.2803C8.92075 13.1397 8.99977 12.9489 8.99977 12.75C8.99977 12.5511 8.92075 12.3603 8.7801 12.2197C8.63945 12.079 8.44868 12 8.24977 12ZM10.9998 12C10.8009 12 10.6101 12.079 10.4694 12.2197C10.3288 12.3603 10.2498 12.5511 10.2498 12.75C10.2498 12.9489 10.3288 13.1397 10.4694 13.2803C10.6101 13.421 10.8009 13.5 10.9998 13.5C11.1987 13.5 11.3894 13.421 11.5301 13.2803C11.6708 13.1397 11.7498 12.9489 11.7498 12.75C11.7498 12.5511 11.6708 12.3603 11.5301 12.2197C11.3894 12.079 11.1987 12 10.9998 12ZM13.7498 12C13.5509 12 13.3601 12.079 13.2194 12.2197C13.0788 12.3603 12.9998 12.5511 12.9998 12.75C12.9998 12.9489 13.0788 13.1397 13.2194 13.2803C13.3601 13.421 13.5509 13.5 13.7498 13.5C13.9487 13.5 14.1394 13.421 14.2801 13.2803C14.4208 13.1397 14.4998 12.9489 14.4998 12.75C14.4998 12.5511 14.4208 12.3603 14.2801 12.2197C14.1394 12.079 13.9487 12 13.7498 12ZM8.24977 14.5C8.05086 14.5 7.86009 14.579 7.71944 14.7197C7.57879 14.8603 7.49977 15.0511 7.49977 15.25C7.49977 15.4489 7.57879 15.6397 7.71944 15.7803C7.86009 15.921 8.05086 16 8.24977 16C8.44868 16 8.63945 15.921 8.7801 15.7803C8.92075 15.6397 8.99977 15.4489 8.99977 15.25C8.99977 15.0511 8.92075 14.8603 8.7801 14.7197C8.63945 14.579 8.44868 14.5 8.24977 14.5ZM10.9998 14.5C10.8009 14.5 10.6101 14.579 10.4694 14.7197C10.3288 14.8603 10.2498 15.0511 10.2498 15.25C10.2498 15.4489 10.3288 15.6397 10.4694 15.7803C10.6101 15.921 10.8009 16 10.9998 16C11.1987 16 11.3894 15.921 11.5301 15.7803C11.6708 15.6397 11.7498 15.4489 11.7498 15.25C11.7498 15.0511 11.6708 14.8603 11.5301 14.7197C11.3894 14.579 11.1987 14.5 10.9998 14.5ZM13.7498 14.5C13.5509 14.5 13.3601 14.579 13.2194 14.7197C13.0788 14.8603 12.9998 15.0511 12.9998 15.25C12.9998 15.4489 13.0788 15.6397 13.2194 15.7803C13.3601 15.921 13.5509 16 13.7498 16C13.9487 16 14.1394 15.921 14.2801 15.7803C14.4208 15.6397 14.4998 15.4489 14.4998 15.25C14.4998 15.0511 14.4208 14.8603 14.2801 14.7197C14.1394 14.579 13.9487 14.5 13.7498 14.5Z" fill="#041C34"/>
</svg>
