<svg width="22" height="18" viewBox="0 0 22 18" fill="none" xmlns="http://www.w3.org/2000/svg">
<path d="M8.24994 0C7.29246 0 6.49994 0.792523 6.49994 1.75V2.1543C4.37936 2.83817 3.07664 3.96671 2.37982 5.00098C2.00292 5.56039 1.7846 6.09876 1.6601 6.5H1.24994C1.15056 6.49859 1.05188 6.51696 0.959657 6.55402C0.867431 6.59108 0.78349 6.6461 0.712713 6.71588C0.641936 6.78566 0.585734 6.86882 0.547373 6.96051C0.509012 7.0522 0.489258 7.15061 0.489258 7.25C0.489258 7.34939 0.509012 7.4478 0.547373 7.53949C0.585734 7.63118 0.641936 7.71434 0.712713 7.78412C0.78349 7.8539 0.867431 7.90892 0.959657 7.94598C1.05188 7.98304 1.15056 8.00141 1.24994 8H20.7499C20.8493 8.00141 20.948 7.98304 21.0402 7.94598C21.1324 7.90892 21.2164 7.8539 21.2872 7.78412C21.3579 7.71434 21.4141 7.63118 21.4525 7.53949C21.4909 7.4478 21.5106 7.34939 21.5106 7.25C21.5106 7.15061 21.4909 7.0522 21.4525 6.96051C21.4141 6.86882 21.3579 6.78566 21.2872 6.71588C21.2164 6.6461 21.1324 6.59108 21.0402 6.55402C20.948 6.51696 20.8493 6.49859 20.7499 6.5H20.3398C20.2153 6.09876 19.997 5.56039 19.6201 5.00098C18.9232 3.96671 17.6205 2.83817 15.4999 2.1543V1.75C15.4999 0.792523 14.7074 0 13.7499 0H8.24994ZM8.24994 1.5H13.7499C13.8975 1.5 13.9999 1.60248 13.9999 1.75V2.68164C14 2.84768 14.0552 3.00899 14.1568 3.1403C14.2584 3.27161 14.4008 3.36549 14.5615 3.40723C16.7331 3.97215 17.8018 4.98763 18.3759 5.83984C18.5403 6.08383 18.6541 6.30164 18.7441 6.5H3.2558C3.34582 6.30164 3.45958 6.08383 3.62396 5.83984C4.19813 4.98763 5.26679 3.97215 7.43842 3.40723C7.59912 3.36549 7.74144 3.27161 7.84305 3.1403C7.94467 3.00899 7.99985 2.84768 7.99994 2.68164V1.75C7.99994 1.60248 8.10242 1.5 8.24994 1.5ZM5.74994 9.5C5.55103 9.5 5.36026 9.57902 5.21961 9.71967C5.07896 9.86032 4.99994 10.0511 4.99994 10.25C4.99994 10.4489 5.07896 10.6397 5.21961 10.7803C5.36026 10.921 5.55103 11 5.74994 11C5.94885 11 6.13962 10.921 6.28027 10.7803C6.42092 10.6397 6.49994 10.4489 6.49994 10.25C6.49994 10.0511 6.42092 9.86032 6.28027 9.71967C6.13962 9.57902 5.94885 9.5 5.74994 9.5ZM9.24994 9.5C9.05103 9.5 8.86026 9.57902 8.71961 9.71967C8.57896 9.86032 8.49994 10.0511 8.49994 10.25C8.49994 10.4489 8.57896 10.6397 8.71961 10.7803C8.86026 10.921 9.05103 11 9.24994 11C9.44885 11 9.63962 10.921 9.78027 10.7803C9.92092 10.6397 9.99994 10.4489 9.99994 10.25C9.99994 10.0511 9.92092 9.86032 9.78027 9.71967C9.63962 9.57902 9.44885 9.5 9.24994 9.5ZM12.7499 9.5C12.551 9.5 12.3603 9.57902 12.2196 9.71967C12.079 9.86032 11.9999 10.0511 11.9999 10.25C11.9999 10.4489 12.079 10.6397 12.2196 10.7803C12.3603 10.921 12.551 11 12.7499 11C12.9489 11 13.1396 10.921 13.2803 10.7803C13.4209 10.6397 13.4999 10.4489 13.4999 10.25C13.4999 10.0511 13.4209 9.86032 13.2803 9.71967C13.1396 9.57902 12.9489 9.5 12.7499 9.5ZM16.2499 9.5C16.051 9.5 15.8603 9.57902 15.7196 9.71967C15.579 9.86032 15.4999 10.0511 15.4999 10.25C15.4999 10.4489 15.579 10.6397 15.7196 10.7803C15.8603 10.921 16.051 11 16.2499 11C16.4489 11 16.6396 10.921 16.7803 10.7803C16.9209 10.6397 16.9999 10.4489 16.9999 10.25C16.9999 10.0511 16.9209 9.86032 16.7803 9.71967C16.6396 9.57902 16.4489 9.5 16.2499 9.5ZM4.24994 13C4.05103 13 3.86026 13.079 3.71961 13.2197C3.57896 13.3603 3.49994 13.5511 3.49994 13.75C3.49994 13.9489 3.57896 14.1397 3.71961 14.2803C3.86026 14.421 4.05103 14.5 4.24994 14.5C4.44885 14.5 4.63962 14.421 4.78027 14.2803C4.92092 14.1397 4.99994 13.9489 4.99994 13.75C4.99994 13.5511 4.92092 13.3603 4.78027 13.2197C4.63962 13.079 4.44885 13 4.24994 13ZM8.74994 13C8.55103 13 8.36026 13.079 8.21961 13.2197C8.07896 13.3603 7.99994 13.5511 7.99994 13.75C7.99994 13.9489 8.07896 14.1397 8.21961 14.2803C8.36026 14.421 8.55103 14.5 8.74994 14.5C8.94885 14.5 9.13962 14.421 9.28027 14.2803C9.42092 14.1397 9.49994 13.9489 9.49994 13.75C9.49994 13.5511 9.42092 13.3603 9.28027 13.2197C9.13962 13.079 8.94885 13 8.74994 13ZM13.2499 13C13.051 13 12.8603 13.079 12.7196 13.2197C12.579 13.3603 12.4999 13.5511 12.4999 13.75C12.4999 13.9489 12.579 14.1397 12.7196 14.2803C12.8603 14.421 13.051 14.5 13.2499 14.5C13.4489 14.5 13.6396 14.421 13.7803 14.2803C13.9209 14.1397 13.9999 13.9489 13.9999 13.75C13.9999 13.5511 13.9209 13.3603 13.7803 13.2197C13.6396 13.079 13.4489 13 13.2499 13ZM17.7499 13C17.551 13 17.3603 13.079 17.2196 13.2197C17.079 13.3603 16.9999 13.5511 16.9999 13.75C16.9999 13.9489 17.079 14.1397 17.2196 14.2803C17.3603 14.421 17.551 14.5 17.7499 14.5C17.9489 14.5 18.1396 14.421 18.2803 14.2803C18.4209 14.1397 18.4999 13.9489 18.4999 13.75C18.4999 13.5511 18.4209 13.3603 18.2803 13.2197C18.1396 13.079 17.9489 13 17.7499 13ZM2.74994 16.5C2.55103 16.5 2.36026 16.579 2.21961 16.7197C2.07896 16.8603 1.99994 17.0511 1.99994 17.25C1.99994 17.4489 2.07896 17.6397 2.21961 17.7803C2.36026 17.921 2.55103 18 2.74994 18C2.94885 18 3.13962 17.921 3.28027 17.7803C3.42092 17.6397 3.49994 17.4489 3.49994 17.25C3.49994 17.0511 3.42092 16.8603 3.28027 16.7197C3.13962 16.579 2.94885 16.5 2.74994 16.5ZM8.24994 16.5C8.05103 16.5 7.86026 16.579 7.71961 16.7197C7.57896 16.8603 7.49994 17.0511 7.49994 17.25C7.49994 17.4489 7.57896 17.6397 7.71961 17.7803C7.86026 17.921 8.05103 18 8.24994 18C8.44885 18 8.63962 17.921 8.78027 17.7803C8.92092 17.6397 8.99994 17.4489 8.99994 17.25C8.99994 17.0511 8.92092 16.8603 8.78027 16.7197C8.63962 16.579 8.44885 16.5 8.24994 16.5ZM13.7499 16.5C13.551 16.5 13.3603 16.579 13.2196 16.7197C13.079 16.8603 12.9999 17.0511 12.9999 17.25C12.9999 17.4489 13.079 17.6397 13.2196 17.7803C13.3603 17.921 13.551 18 13.7499 18C13.9489 18 14.1396 17.921 14.2803 17.7803C14.4209 17.6397 14.4999 17.4489 14.4999 17.25C14.4999 17.0511 14.4209 16.8603 14.2803 16.7197C14.1396 16.579 13.9489 16.5 13.7499 16.5ZM19.2499 16.5C19.051 16.5 18.8603 16.579 18.7196 16.7197C18.579 16.8603 18.4999 17.0511 18.4999 17.25C18.4999 17.4489 18.579 17.6397 18.7196 17.7803C18.8603 17.921 19.051 18 19.2499 18C19.4489 18 19.6396 17.921 19.7803 17.7803C19.9209 17.6397 19.9999 17.4489 19.9999 17.25C19.9999 17.0511 19.9209 16.8603 19.7803 16.7197C19.6396 16.579 19.4489 16.5 19.2499 16.5Z" fill="#041C34"/>
</svg>
