<svg width="24" height="20" viewBox="0 0 24 20" fill="none" xmlns="http://www.w3.org/2000/svg">
<path d="M6.99998 0C5.07578 0 3.49998 1.5758 3.49998 3.5V8.5H1.74998C1.56521 8.49798 1.3862 8.56423 1.24727 8.68605C1.10833 8.80787 1.01925 8.97669 0.997107 9.16014C0.974963 9.34359 1.02131 9.52875 1.12727 9.68014C1.23322 9.83152 1.39133 9.93847 1.57127 9.98047L2.65526 16.2988C2.65526 16.2992 2.65526 16.2995 2.65526 16.2998C2.87279 17.567 3.81542 18.5618 5.01073 18.8867C5.0392 19.0509 5.12155 19.201 5.2448 19.3132C5.36805 19.4254 5.52515 19.4934 5.69132 19.5064C5.85749 19.5194 6.02326 19.4767 6.16244 19.385C6.30162 19.2933 6.4063 19.1578 6.45994 19H17.54C17.5937 19.1578 17.6983 19.2933 17.8375 19.385C17.9767 19.4767 18.1425 19.5194 18.3086 19.5064C18.4748 19.4934 18.6319 19.4254 18.7552 19.3132C18.8784 19.201 18.9608 19.0509 18.9892 18.8867C20.1849 18.5617 21.1286 17.5664 21.3457 16.2988H21.3447L22.4287 9.98047C22.6086 9.93847 22.7667 9.83152 22.8727 9.68014C22.9787 9.52875 23.025 9.34359 23.0029 9.16014C22.9807 8.97669 22.8916 8.80787 22.7527 8.68605C22.6138 8.56423 22.4348 8.49798 22.25 8.5H4.99998V3.5C4.99998 2.3862 5.88618 1.5 6.99998 1.5C8.07319 1.5 8.92686 2.32546 8.98826 3.38184C8.2745 3.63869 7.728 4.2467 7.55662 4.99707C7.49712 5.25657 7.71395 5.5 7.98045 5.5H11.5195C11.786 5.5 12.0028 5.25657 11.9433 4.99707C11.7705 4.24043 11.2157 3.63003 10.4931 3.37695C10.4272 1.50955 8.88266 0 6.99998 0ZM3.09666 10H20.9033L19.8672 16.0459C19.729 16.8528 19.0605 17.439 18.2539 17.4902C18.2487 17.4899 18.2435 17.4895 18.2383 17.4893C18.2016 17.4902 18.165 17.4937 18.1289 17.5H5.87303C5.82884 17.4924 5.78407 17.4888 5.73924 17.4893C5.73892 17.4892 5.73859 17.4893 5.73826 17.4893C5.73761 17.4893 5.73696 17.4893 5.73631 17.4893C4.93412 17.4338 4.27082 16.8499 4.1328 16.0459L3.09666 10Z" fill="#041C34"/>
</svg>
