<svg width="20" height="21" viewBox="0 0 20 21" fill="none" xmlns="http://www.w3.org/2000/svg">
<path d="M14.7441 0.993194C14.575 0.996326 14.4119 1.05655 14.2812 1.16409L9.7666 4.7764L6.73828 2.18069C6.66367 2.11547 6.57688 2.06567 6.48291 2.03419C6.38895 2.0027 6.28967 1.99014 6.19083 1.99725C6.09198 2.00435 5.99552 2.03097 5.90703 2.07557C5.81853 2.12017 5.73975 2.18186 5.67523 2.25709C5.61072 2.33231 5.56175 2.41958 5.53115 2.51384C5.50056 2.6081 5.48895 2.70749 5.49699 2.80626C5.50503 2.90503 5.53257 3.00124 5.57801 3.08931C5.62345 3.17738 5.68589 3.25557 5.76172 3.31937L7.72266 5.00003H3.75C1.96403 5.00003 0.5 6.46406 0.5 8.25003V17.25C0.5 19.036 1.96403 20.5 3.75 20.5H16.25C18.036 20.5 19.5 19.036 19.5 17.25V8.25003C19.5 6.46406 18.036 5.00003 16.25 5.00003H11.8887L15.2188 2.33597C15.3434 2.23936 15.4344 2.10592 15.4789 1.95462C15.5234 1.80331 15.519 1.64184 15.4664 1.49315C15.4139 1.34447 15.3158 1.21613 15.1861 1.12637C15.0565 1.03662 14.9018 0.990018 14.7441 0.993194ZM3.75 6.50003H9.74316H16.25C17.225 6.50003 18 7.275 18 8.25003V17.25C18 18.2251 17.225 19 16.25 19H3.75C2.77497 19 2 18.2251 2 17.25V8.25003C2 7.275 2.77497 6.50003 3.75 6.50003ZM15.75 10C15.5511 10 15.3603 10.079 15.2197 10.2197C15.079 10.3604 15 10.5511 15 10.75C15 10.9489 15.079 11.1397 15.2197 11.2804C15.3603 11.421 15.5511 11.5 15.75 11.5C15.9489 11.5 16.1397 11.421 16.2803 11.2804C16.421 11.1397 16.5 10.9489 16.5 10.75C16.5 10.5511 16.421 10.3604 16.2803 10.2197C16.1397 10.079 15.9489 10 15.75 10ZM15.75 13.5C15.5511 13.5 15.3603 13.579 15.2197 13.7197C15.079 13.8604 15 14.0511 15 14.25C15 14.4489 15.079 14.6397 15.2197 14.7804C15.3603 14.921 15.5511 15 15.75 15C15.9489 15 16.1397 14.921 16.2803 14.7804C16.421 14.6397 16.5 14.4489 16.5 14.25C16.5 14.0511 16.421 13.8604 16.2803 13.7197C16.1397 13.579 15.9489 13.5 15.75 13.5Z" fill="#041C34"/>
</svg>
