<svg width="20" height="17" viewBox="0 0 20 17" fill="none" xmlns="http://www.w3.org/2000/svg">
<path d="M2.75 0C1.24011 0 0 1.24011 0 2.75V13.25C0 14.6758 1.10646 15.8596 2.50098 15.9873C2.4993 16.1196 2.52389 16.2509 2.57333 16.3737C2.62277 16.4964 2.69608 16.6081 2.789 16.7023C2.88192 16.7965 2.99261 16.8713 3.11466 16.9224C3.23671 16.9735 3.36769 16.9999 3.5 17C3.76505 16.9997 4.01915 16.8943 4.20648 16.7068C4.3938 16.5193 4.49902 16.265 4.49902 16H15.501C15.501 16.265 15.6062 16.5193 15.7935 16.7068C15.9808 16.8943 16.235 16.9997 16.5 17C16.6324 17 16.7635 16.9737 16.8856 16.9227C17.0078 16.8716 17.1186 16.7968 17.2116 16.7026C17.3047 16.6084 17.3781 16.4967 17.4276 16.3739C17.4771 16.2511 17.5017 16.1197 17.5 15.9873C18.8941 15.8592 20 14.6754 20 13.25V2.75C20 1.24011 18.7599 0 17.25 0H2.75ZM2.75 1.5H17.25C17.9491 1.5 18.5 2.05089 18.5 2.75V13.25C18.5 13.9491 17.9491 14.5 17.25 14.5H2.75C2.05089 14.5 1.5 13.9491 1.5 13.25V2.75C1.5 2.05089 2.05089 1.5 2.75 1.5ZM12 3.5C9.5236 3.5 7.5 5.5236 7.5 8C7.5 10.4764 9.5236 12.5 12 12.5C14.4764 12.5 16.5 10.4764 16.5 8C16.5 5.5236 14.4764 3.5 12 3.5ZM12 5C13.6657 5 15 6.33426 15 8C15 9.66574 13.6657 11 12 11C10.3343 11 9 9.66574 9 8C9 6.33426 10.3343 5 12 5ZM3.73828 5.48926C3.53954 5.49236 3.35016 5.57423 3.21173 5.71686C3.0733 5.8595 2.99715 6.05125 3 6.25V9.75C2.99859 9.84938 3.01696 9.94806 3.05402 10.0403C3.09108 10.1325 3.1461 10.2164 3.21588 10.2872C3.28566 10.358 3.36882 10.4142 3.46051 10.4526C3.5522 10.4909 3.65061 10.5107 3.75 10.5107C3.84939 10.5107 3.9478 10.4909 4.03949 10.4526C4.13118 10.4142 4.21434 10.358 4.28412 10.2872C4.3539 10.2164 4.40892 10.1325 4.44598 10.0403C4.48304 9.94806 4.50141 9.84938 4.5 9.75V6.25C4.50144 6.14962 4.48271 6.04997 4.44493 5.95695C4.40715 5.86394 4.35108 5.77946 4.28005 5.70852C4.20901 5.63758 4.12446 5.58161 4.0314 5.54395C3.93834 5.50629 3.83866 5.48769 3.73828 5.48926Z" fill="#041C34"/>
</svg>
